<svg width="880" height="104" fill="none" xmlns="http://www.w3.org/2000/svg"><g clip-path="url(#clip0_414_3995)"><rect y="-233" width="880" height="356" rx="8" fill="#025943"/><g opacity=".1" clip-path="url(#clip1_414_3995)"><path d="M237.09 33.82c.344.413 2.544 2.2 2.612 2.75.207.825-1.099 2.956-1.374 3.712.756-.619 1.581-1.169 2.337-1.787-2.062.206-3.918.55-5.912 1.168-1.031.344-1.787 1.238-1.787 2.338a54.28 54.28 0 001.237 10.517c.138.756.894 1.512 1.719 1.718.893.138 1.718.344 2.612.482l-1.719-1.719c.688 3.093 1.925 5.43 3.85 7.837-.138-.963-.275-1.925-.344-2.956-.825 1.237-1.65 2.406-2.475 3.643-.55.825-.412 2.268.344 2.956 3.643 3.025 9.899 8.18 13.473 2.475-.893.343-1.787.756-2.749 1.1 2.612 1.03 5.155 2.062 7.767 3.093-.618-.756-1.168-1.581-1.787-2.337 0 1.03.069 2.062.069 3.093.069 1.237 1.1 2.543 2.406 2.406 2.887-.275 8.111.344 10.586-1.306 2.268-1.513 1.306-3.712 1.1-5.912-.413.688-.825 1.375-1.169 2.062a123.796 123.796 0 014.193-2.2c-.962-.137-1.924-.274-2.955-.343 1.718 1.58 4.33 4.056 6.942 3.437 2.544-.619 4.881-4.537 6.256-6.53 2.543-3.644 2.131-8.937-3.231-9.212.756 1.031 1.581 2.062 2.337 3.094.688-1.925 1.1-3.781 1.444-5.843l-1.719 1.718c1.238-.412 2.544-.619 3.85-.687 1.375-.07 2.337-1.031 2.406-2.406a29.488 29.488 0 00-.825-8.524c-.275-1.031-1.306-1.787-2.337-1.787h-3.3c.756.618 1.581 1.168 2.337 1.787-.068-.344-1.031-5.637-1.581-4.125.138-.412 1.787-1.1 2.131-1.65 1.169-1.924-.069-3.505-1.168-5.086-1.444-2.062-3.369-6.05-5.912-7.08-2.956-1.307-5.018 2.2-8.249 1.03.55.963 1.1 1.994 1.718 2.957.619-2.956 0-5.981-2.543-7.906-3.231-2.406-7.493-1.375-11.205-1.65-.962-.068-2.199.757-2.337 1.788-.206 1.58-.412 3.162-.481 4.812.412-.688.825-1.375 1.168-2.063-1.924 1.306-2.612 1.444-4.674.619-1.169-.481-1.65-.756-2.956-.412-3.437.825-6.943 4.537-9.28 7.011-2.131 2.269 1.306 5.706 3.437 3.437 1.444-1.58 4.812-5.5 6.599-5.5 1.238 0 2.544 1.307 4.194 1.17 1.649-.138 3.918-.963 5.086-2.131 1.65-1.581 1.238-3.3 1.513-5.569-.756.62-1.581 1.17-2.338 1.788 1.925.137 9.968-1.031 9.074 3.437-.275 1.375.344 2.543 1.719 2.956 1.65.618 3.231.825 5.018.48 1.512-.274 2.543-1.443 3.918-1.786-.756-.207-1.581-.413-2.337-.619 1.856 1.444 3.162 5.568 5.156 6.462.412.962.687.962.756-.07.412-.755.412-.962-.138-.618-.275-.069-1.306.825-1.443.963-2.131 2.406.068 6.049.481 8.798.137 1.032 1.375 1.788 2.337 1.788h3.3c-.757-.619-1.581-1.169-2.338-1.788.619 2.475.757 4.744.619 7.287l2.406-2.406c-1.787.138-3.437.344-5.156.825-.756.206-1.581.894-1.718 1.719a29.005 29.005 0 01-1.444 5.842c-.55 1.582.894 2.956 2.338 3.094-.138 0-4.537 6.118-5.431 6.874.756-.206 1.581-.412 2.337-.619-1.375-.343-2.543-1.1-3.506-2.2-.824-.756-1.924-.893-2.955-.343a122.712 122.712 0 01-4.194 2.2c-.687.343-1.306 1.306-1.168 2.062.206 1.993.412 1.237-.963 1.924-1.374.688-4.33.413-5.911.55l2.406 2.406c0-1.03-.069-2.062-.069-3.093 0-1.169-.756-1.925-1.787-2.337-2.613-1.031-5.156-2.062-7.768-3.094-1.031-.412-2.2.276-2.75 1.1-.55.894-5.705-3.3-5.843-3.437.138.963.275 1.925.344 2.956.825-1.237 1.65-2.406 2.475-3.643.687-.963.275-2.131-.344-2.956-1.375-1.787-2.131-3.575-2.612-5.706-.138-.756-.894-1.512-1.719-1.718-.893-.138-1.718-.344-2.612-.481l1.719 1.718a46.71 46.71 0 01-1.1-9.211c-.619.756-1.169 1.581-1.788 2.337 1.513-.55 3.025-.893 4.606-.962 1.169-.138 1.925-.688 2.337-1.787.688-1.788 1.994-4.056 1.513-6.05-.413-1.924-2.819-3.78-4.056-5.087-1.719-2.75-5.156.688-3.025 2.956z" fill="#099F4E"/><path d="M254.344 33.202c-14.916 6.874-7.08 29.283 8.868 25.709 7.149-1.581 11.892-8.524 10.792-15.81-1.031-6.875-7.149-11.48-13.954-11.48-3.093 0-3.093 4.811 0 4.811 11.067 0 12.442 15.88 1.512 17.804-10.723 1.857-14.367-12.51-4.812-16.91 2.888-1.237.413-5.362-2.406-4.124z" fill="#099F4E"/><path d="M825.239 73.965c2.612-1.856 5.499-3.093 8.73-3.368 2.2-.206 2.2-3.643 0-3.437-3.781.412-7.355 1.58-10.449 3.85-1.787 1.237-.068 4.261 1.719 2.955zm6.462 24.953c1.993-.344 4.056-.137 5.98.413 2.131.55 3.025-2.75.894-3.3a18.838 18.838 0 00-7.837-.412c-2.131.343-1.237 3.643.963 3.3z" fill="#000"/><path d="M567.048 72.865c-7.631-2.13-16.086.413-21.379 6.325-5.293 5.911-6.187 14.298-3.024 21.515 7.561 17.186 33.958 15.605 40.488-1.718 3.643-9.555-.481-21.104-10.449-24.61-2.062-.756-3.024 2.613-.893 3.3 10.173 3.506 11.823 17.117 5.362 24.816-5.981 7.149-17.598 9.486-25.435 4.055-6.667-4.605-9.623-14.298-5.911-21.653 3.643-7.287 12.579-10.93 20.347-8.73 2.062.619 3.025-2.681.894-3.3z" fill="#099F4E"/><path d="M577.908 79.12c1.925-1.03 3.85-2.062 5.775-3.024-.757-.206-1.581-.412-2.338-.618 1.031 1.443 3.506 4.811.963 6.117-1.994 1.031-.206 3.987 1.718 2.956 1.788-.893 2.75-2.75 2.75-4.743.069-2.337-1.237-4.262-2.543-6.118-.55-.756-1.444-1.1-2.338-.618-1.924 1.03-3.849 2.062-5.774 3.024-1.925 1.1-.137 4.056 1.787 3.025z" fill="#099F4E"/><path d="M583.545 75.065l18.148-10.93c2.681-1.58 17.667-12.304 17.598-3.574-.069 6.324-11.205 9.005-15.742 10.93-6.53 2.75-13.061 5.568-19.66 8.317-2.062.894-.275 3.85 1.719 2.956 9.005-3.85 18.01-7.561 27.015-11.48 5.293-2.268 12.511-6.943 9.486-13.817-2.956-6.736-10.93-3.024-15.329-.412-8.318 4.95-16.635 9.967-24.953 14.985-1.925 1.17-.206 4.125 1.718 3.025zm-33.82 25.778c6.393 4.124 14.917 6.118 21.86 2.268 5.843-3.23 9.28-10.242 7.355-16.704-.619-2.13-3.918-1.237-3.3.894 1.581 5.362-1.581 10.998-6.599 13.267-5.843 2.612-12.511.619-17.598-2.68-1.856-1.238-3.574 1.786-1.718 2.955z" fill="#099F4E"/><path d="M541.132 37.395c-.343 5.912-.206 11.823.275 17.735.138 1.65 2.681 1.65 2.544 0-.482-5.912-.619-11.823-.275-17.735.137-1.65-2.406-1.65-2.544 0zm10.723-8.455c0 8.455.069 16.841.069 25.296 0 1.032 1.444 1.788 2.2.894.344-.412.619-.825.962-1.169 1.031-1.306-.756-3.093-1.787-1.787-.344.413-.619.825-.962 1.169.756.275 1.443.618 2.199.893 0-8.455-.068-16.841-.068-25.296-.069-1.65-2.613-1.65-2.613 0zm14.78-10.036a156.213 156.213 0 001.856 35.814c.275 1.65 2.749.962 2.474-.688-1.924-11.617-2.543-23.372-1.718-35.127.069-1.65-2.475-1.65-2.612 0zm15.604-9.212l.412 23.166.206 11.067c.069 2.75-.137 5.362 1.719 7.63 1.031 1.238 2.887-.55 1.787-1.787-1.856-2.2-1.031-7.149-1.031-9.83-.069-3.368-.137-6.736-.137-10.105-.138-6.736-.207-13.473-.344-20.14-.069-1.65-2.681-1.65-2.612 0z" fill="#000"/><path d="M582.308 3.437c-2.819 2.887-4.331 6.599-4.331 10.655 0 1.306 1.719 1.718 2.406.618a42.432 42.432 0 004.537-9.623c-.687.206-1.444.343-2.131.55 1.856 1.924 2.75 4.262 2.612 6.874.344-.413.619-.825.962-1.238-.893.138-1.718.344-2.612.482-.55.068-1.649.55-2.199.412l.893.894h-2.612v.137c.206 1.65 2.75 1.65 2.544 0v-.137c-.207-1.582-2.613-1.719-2.544 0 0 .893.55 1.58 1.444 1.718 1.718.206 4.055-.687 5.774-.962.55-.138.894-.688.962-1.238.138-3.3-1.1-6.393-3.368-8.73-.687-.687-1.856-.343-2.131.55-1.031 3.231-2.475 6.187-4.331 9.005.825.207 1.581.413 2.406.619 0-3.368 1.238-6.393 3.575-8.868 1.1-1.1-.688-2.956-1.856-1.718zM111.5-4.606c5.225-6.118 14.78-7.905 21.723-3.574 7.011 4.33 9.417 14.16 5.842 21.447-.618 1.168.55 2.268 1.788 1.787 5.843-2.68 12.304-2.956 18.629-2.818 5.361.137 16.36 1.1 14.848 9.142-.275 1.512 1.443 2.131 2.337.963C185.053 11.342 195.846 0 210.006-2.75c11.549-2.27 25.228 2.199 30.178 13.541.343.825 1.443.688 1.993.275C255.513.275 274.348-2.819 290.502 2.75c16.085 5.5 28.184 20.004 32.033 36.433 1.031 4.537 1.375 9.212 1.169 13.817-.275 5.293-.962 10.586.962 15.604.413 1.1 1.65 1.238 2.338.275 3.78-4.88 11.204-6.599 16.566-3.437 5.362 3.162 7.424 10.105 5.293 15.81.825.207 1.65.482 2.475.688 1.65-8.799 9.555-15.535 18.491-15.673 1.65 0 1.65-2.612 0-2.543-10.036.137-19.11 7.63-20.966 17.529-.344 1.65 1.925 2.2 2.475.687 2.612-6.943-.344-15.535-7.08-19.041-6.668-3.437-14.986-1.169-19.454 4.674.756.069 1.581.206 2.337.275-1.993-5.293-1.031-10.792-.825-16.291a50.234 50.234 0 00-1.169-12.443c-1.856-8.455-5.774-16.36-11.204-23.028C302.6 2.268 284.934-4.468 267.199-2.269c-9.83 1.238-19.179 5.156-26.878 11.343.687.068 1.375.206 1.994.275-5.225-11.961-19.523-16.842-31.759-14.917-15.467 2.406-27.153 14.71-36.158 26.534a33.89 33.89 0 002.338.962c1.443-7.836-6.393-11.617-12.924-12.167-8.111-.756-16.841-.481-24.334 2.956l1.787 1.787c4.125-8.386 1.581-19.247-6.186-24.61-7.837-5.361-19.317-3.505-25.366 3.644-1.1 1.306.756 3.093 1.787 1.856zm392.168 79.877c5.361-2.475 12.029-5.293 17.597-1.856.894.55 2.269-.412 1.856-1.443-2.199-6.462-2.268-13.336-.137-19.798 1.718-5.087 7.768-13.886 13.954-8.593 1.238 1.032 3.094-.756 1.788-1.787-6.05-5.087-13.405-.275-16.498 5.637-4.056 7.768-4.4 17.048-1.65 25.297l1.856-1.444c-6.462-3.918-13.954-1.031-20.21 1.856-1.306.619 0 2.819 1.444 2.131zm90.807-35.539c6.599-5.018 14.367-10.998 23.166-10.311 3.574.275 7.286 1.719 9.83 4.262 2.612 2.612 2.474 5.98 4.124 9.074 1.169 2.13 3.231 3.3 5.431 1.787 1.718-1.169 2.749-2.543 4.88-3.093 1.925-.55 4.056-.482 5.981 0 8.868 2.13 12.442 11.48 15.123 19.247.344 1.031 1.718 1.306 2.337.275 6.118-10.036 17.873-15.673 29.559-14.367 1.65.206 1.65-2.406 0-2.543-12.58-1.444-25.228 4.812-31.759 15.604.757.069 1.581.206 2.338.275-2.131-6.324-4.606-13.13-9.899-17.529-4.262-3.506-10.517-5.293-15.811-3.024-1.306.55-2.199 1.374-3.299 2.13-.962.688-1.719 1.032-2.544.07-.481-.55-.687-1.582-.824-2.27-.757-2.68-1.444-4.949-3.369-7.08-3.643-3.987-9.486-5.911-14.779-5.499-8.318.619-15.329 5.843-21.722 10.655-1.375 1.1-.069 3.368 1.237 2.337zm176.39-.55c4.743-6.187 12.923-8.868 20.416-6.943.206-.825.481-1.65.687-2.474-14.642-2.75-28.871-14.024-32.308-28.94-1.444-6.393-.963-14.642 4.605-18.973 2.681-2.062 6.256-2.406 7.699-5.843 1.513-3.506.963-7.286 3.025-10.655 5.156-8.73 17.117-9.898 24.128-2.75.756.757 2.337.207 2.2-.893-.825-8.043 1.925-16.223 7.836-21.79 5.981-5.638 14.642-7.975 22.685-6.463 1.581.275 2.337-2.2.687-2.474-8.73-1.65-17.872.687-24.54 6.599-6.737 5.98-10.105 15.192-9.212 24.128.757-.275 1.444-.619 2.2-.894-5.843-5.98-15.467-7.424-22.478-2.68-3.231 2.13-5.706 5.292-7.081 8.867-.756 2.062-.824 4.125-1.237 6.256-.619 3.3-2.749 3.918-5.43 5.361-6.6 3.506-8.73 11.343-8.249 18.354.618 7.974 4.537 15.398 9.83 21.31 6.53 7.286 15.398 12.305 25.021 14.092 1.581.275 2.338-2.063.688-2.475-8.73-2.268-17.873 1.031-23.372 8.112-1.031 1.168 1.237 2.474 2.2 1.168z" fill="#000"/><path d="M653.867 31.277c35.47-2.819 78.227-9.899 94.107-46.744 3.643-8.524 4.949-17.598 3.505-26.809-1.099.275-2.199.619-3.299.894.481 2.2-.206 4.055-1.856 5.499l2.406 2.406c1.925-2.337 2.887-4.743 2.956-7.7-1.1.276-2.131.55-3.231.895 1.031 2.337 1.443 4.674 1.512 7.149.069 2.2 3.506 2.2 3.437 0-.069-3.162-.756-6.05-1.993-8.937-.756-1.65-3.162-.687-3.231.894-.069 2.062-.688 3.712-1.994 5.293-1.374 1.718.757 3.918 2.406 2.406 2.612-2.337 3.506-5.5 2.75-8.868-.481-2.2-3.643-1.237-3.3.894 3.369 21.172-10.38 41.382-27.702 52.38-19.729 12.443-43.857 15.055-66.61 16.842-2.063.275-2.063 3.712.137 3.506z" fill="#0DBA4B"/><path d="M115.281.069c.275-.688.482-1.375.756-2.063.275-.825-.343-1.924-1.168-2.13-.963-.207-1.787.274-2.131 1.168-.275.687-.481 1.375-.756 2.062-.275.825.343 1.925 1.168 2.131.963.275 1.788-.275 2.131-1.168zm186.77 20.416c6.942 1.924 9.417 11.067 10.723 17.322 1.512 7.287 1.238 14.848-.618 22.066-.138.55.687.756.824.207 2.063-8.112 2.2-16.636.069-24.816-1.512-5.98-4.193-13.748-10.792-15.604-.55-.138-.756.687-.206.825z" fill="#000"/><path d="M308.168 40.145a58.588 58.588 0 01.069 15.123c-.069.55.825.55.825 0 .618-5.087.618-10.105-.069-15.123-.069-.55-.962-.55-.825 0zM131.985-1.856c5.706 2.406 2.2 9.211-.068 12.717-.275.481.412.893.756.412 2.612-4.056 5.774-11.342-.481-13.954-.482-.206-.688.618-.207.825z" fill="#000"/><path d="M129.579 1.925c1.719 1.924 1.788 4.88.069 6.874-.344.412.275 1.03.619.618 1.993-2.337 1.993-5.774-.069-8.042-.412-.482-1.031.137-.619.55zm56.299 22.615a53.113 53.113 0 0123.579-18.01c2.062-.756 1.168-4.124-.894-3.3-10.311 3.988-19.041 10.655-25.641 19.592-1.306 1.787 1.65 3.506 2.956 1.718zM326.11 65.441h-.138c-.893 0-1.787.756-1.718 1.719.068.962.756 1.718 1.718 1.718h.138c.893 0 1.787-.756 1.718-1.718 0-.963-.687-1.719-1.718-1.719zm27.702 23.235c4.262-7.287 10.174-13.061 17.598-17.117.481-.275.069-1.031-.412-.756-7.493 4.124-13.542 10.036-17.873 17.392-.344.55.412.962.687.48zm4.125 1.031c4.537-4.812 9.417-9.28 14.504-13.473.413-.344-.206-.963-.618-.62a149.54 149.54 0 00-14.505 13.474c-.412.413.206 1.031.619.619zm4.606.481l10.655-10.449c.412-.412-.207-.962-.619-.618l-10.655 10.448c-.412.413.206 1.031.619.619zm4.399.344c2.887-2.887 5.843-5.774 8.73-8.662.413-.412-.206-1.03-.619-.618-2.887 2.887-5.843 5.774-8.73 8.661-.343.413.275 1.031.619.619z" fill="#000"/><path d="M223.617 7.974c2.406-.207 4.743.687 6.187 2.75 1.237 1.787 4.262.068 2.956-1.72-2.131-2.955-5.5-4.742-9.143-4.399-2.2.07-2.2 3.506 0 3.369z" fill="#0DBA4B"/><path d="M433.346 97.887c-.138 3.025-.55 6.049-1.1 9.005-.138.55.756.756.825.206.618-3.093.962-6.118 1.168-9.28 0-.48-.893-.48-.893.069zm4.124-.412c-.344 3.23-.619 6.392-.962 9.623-.069.55.825.55.825 0 .343-3.231.618-6.393.962-9.623.137-.55-.756-.55-.825 0zm3.712-1.032a28.805 28.805 0 00-1.031 9.693c.069.55.894.55.825 0-.206-3.231.069-6.393.963-9.486.206-.55-.619-.757-.757-.207zm3.231-2.749c-.825 3.506-1.169 7.011-1.1 10.655 0 .55.894.55.825 0a37.802 37.802 0 011.031-10.38c.138-.619-.687-.825-.756-.275zm3.094.55l-.619 8.249c-.069.55.825.55.825 0l.619-8.25c.068-.55-.757-.55-.825 0zm1.787.893c-.138 1.994-.206 3.987-.344 5.912 0 .55.825.55.825 0 .138-1.993.206-3.987.344-5.912.069-.55-.756-.55-.825 0zm2.749-1.856v6.393c0 .55.825.55.825 0v-6.393c0-.55-.825-.55-.825 0zM78.23-21.172c-7.424.343-8.524 11.617-6.324 16.91 3.3 7.974 13.06 9.83 20.484 6.943 6.875-2.681 11.893-9.418 9.555-16.91-2.405-7.7-10.654-11.137-18.078-8.937-2.131.619-1.238 3.918.893 3.3 5.362-1.581 11.686.343 13.68 6.049 1.856 5.224-1.031 10.036-5.637 12.51-4.743 2.544-11.411 2.82-15.536-1.03-1.993-1.856-2.955-4.4-3.024-7.08-.069-2.407.55-8.18 3.918-8.387 2.269 0 2.269-3.437.069-3.369z" fill="#000"/><path d="M70.393 3.437l3.093-1.444c.825-.412 1.031-1.58.619-2.337-.481-.894-1.512-1.031-2.337-.619L68.674.481c-.824.412-1.03 1.58-.618 2.337.481.894 1.512 1.031 2.337.619zm16.429 5.018c-.412 1.031 0 2.268.757 3.024.618.688 1.787.688 2.405 0 .62-.687.688-1.718 0-2.405-.206-.275.207.343.07 0 0 .068.068.137.068.206 0-.138-.069-.138 0 .069v-.07.276c0-.069.069-.138.069-.206.275-.825-.344-1.925-1.169-2.131-1.031-.207-1.856.275-2.2 1.237zm14.367-4.743c.206 0 .138 0-.206-.069a.623.623 0 01-.481-.206c-.207-.206-.344-.481-.344-.756-.069.893.825 1.787 1.718 1.718.963-.069 1.65-.756 1.719-1.718.069-1.306-1.1-2.475-2.406-2.406-.894.068-1.787.756-1.718 1.718.068.894.756 1.788 1.718 1.719z" fill="#000"/><path d="M54.652 74.446a1094.336 1094.336 0 0114.641 51.35c.344 1.375 1.925 1.581 2.887.756 11.824-9.83 27.29-14.161 42.551-12.167 2.2.275 2.2-3.162 0-3.437-16.154-2.062-32.445 2.818-44.956 13.198.962.275 1.924.481 2.887.756a1094.359 1094.359 0 00-14.642-51.35c-.688-2.13-4.056-1.237-3.368.894z" fill="#0DBA4B"/><path d="M57.195 73.828c5.774-3.3 12.03-5.637 18.629-6.806 3.3-.55 6.668-.825 9.967-.756 1.031 0 9.761.55 9.761.894-.068 2.2 3.369 2.2 3.437 0 .07-3.3-3.918-3.506-6.324-3.85-4.193-.55-8.455-.687-12.648-.275-8.661.756-16.98 3.437-24.54 7.768-1.925 1.169-.207 4.193 1.718 3.025z" fill="#0DBA4B"/><path d="M98.646 67.985c5.843 13.817 12.717 27.702 16.429 42.275.55-.756 1.1-1.443 1.65-2.199h-.482c.482.275.963.55 1.513.825-.069-.138-.138-.275-.207-.482-.893-1.993-3.849-.275-2.955 1.719.068.137.137.275.206.481.275.55.962.825 1.512.825h.481c1.169.069 1.925-1.169 1.65-2.2-3.849-14.848-10.861-29.008-16.773-43.1-.893-1.856-3.85-.138-3.024 1.856z" fill="#0DBA4B"/><path d="M101.533 67.64c4.605-6.048 10.105-9.967 17.735-11.273 6.736-1.168 13.679-.618 20.416-.48 2.2.068 2.2-3.37 0-3.438-7.837-.206-15.811-.825-23.51 1.031-7.561 1.788-12.992 6.325-17.597 12.374-1.306 1.787 1.65 3.505 2.956 1.787zm16.36 46.401c10.38-7.561 23.51-10.036 35.883-6.668 2.131.55 3.025-2.749.894-3.299-13.198-3.575-27.497-1.031-38.564 7.011-1.718 1.306 0 4.262 1.787 2.956z" fill="#0DBA4B"/><path d="M139.615 55.542c7.906 15.605 13.817 32.171 17.667 49.288.481 2.131 3.781 1.237 3.299-.894-3.918-17.391-9.967-34.164-18.01-50.112-1.031-1.993-3.987-.275-2.956 1.718zM54.376 74.24c-.756.894-1.375 1.375-2.474 1.925-.825.412-1.032 1.58-.62 2.337.482.825 1.513 1.031 2.338.619 1.169-.619 2.269-1.444 3.162-2.475.619-.687.688-1.719 0-2.406-.618-.619-1.787-.687-2.406 0z" fill="#0DBA4B"/><path d="M49.565 78.09c4.95 17.46 9.83 34.851 14.78 52.312.274.893 1.236 1.443 2.13 1.168 9.83-2.406 19.66-4.812 29.421-7.218 4.193-1.031 8.524-1.787 12.511-3.437a20.332 20.332 0 004.468-2.543c.825-.619 5.706-5.637 6.393-2.269.206.963 1.238 1.375 2.131 1.169 14.711-3.162 29.49-6.324 44.201-9.486 2.131-.481 1.237-3.781-.894-3.3-14.711 3.162-29.49 6.324-44.2 9.486a32.54 32.54 0 002.13 1.169c-.618-3.162-4.055-4.331-6.874-3.231-2.199.825-3.574 2.75-5.361 4.125-2.338 1.718-5.156 2.474-7.906 3.23-12.236 3.163-24.609 5.981-36.914 9.006.688.412 1.444.824 2.131 1.168-4.949-17.46-9.83-34.852-14.779-52.312-.619-2.062-3.987-1.168-3.368.963z" fill="#0DBA4B"/><path d="M141.471 56.917c8.524 15.948 15.948 32.377 22.204 49.288.756 2.062 4.056 1.168 3.299-.894a414.77 414.77 0 00-22.547-50.112c-1.031-1.994-3.987-.275-2.956 1.718z" fill="#0DBA4B"/><path d="M214.612 129.37c3.918-.756 7.767-1.443 11.686-2.199.893-.138 1.512-1.306 1.168-2.131-4.399-12.236 7.63-21.104 18.285-23.235 10.655-2.13 24.885 2.544 24.403 15.536-.068 1.237 1.1 1.856 2.2 1.65 5.156-.825 10.311-1.307 15.467-1.513l-1.65-1.237c1.031 3.643 2.131 7.218 3.162 10.861.619 2.131 3.918 1.237 3.3-.894-1.031-3.643-2.131-7.217-3.162-10.861-.207-.687-.894-1.306-1.65-1.237-5.499.206-10.93.756-16.361 1.65.757.55 1.444 1.1 2.2 1.649.55-14.779-15.123-21.172-27.634-19.04-12.717 2.13-27.015 13.198-21.791 27.633.413-.687.825-1.443 1.169-2.131-3.918.756-7.768 1.444-11.686 2.2-2.2.344-1.306 3.643.894 3.299zm430.25 11.618c5.156-13.199 10.243-26.397 15.398-39.595-.687.412-1.443.825-2.131 1.168 15.192 3.644 30.453 7.287 45.645 10.999a32.56 32.56 0 01-1.169-2.131c-4.812 13.817-9.899 27.565-15.398 41.107a32.284 32.284 0 012.131-1.168 1990.017 1990.017 0 01-43.651-13.13c-2.131-.687-3.024 2.681-.893 3.3a1982.81 1982.81 0 0043.65 13.129c.963.275 1.788-.344 2.131-1.168 5.5-13.542 10.586-27.291 15.398-41.108.275-.825-.343-1.924-1.168-2.131-15.192-3.643-30.453-7.286-45.644-10.998-.963-.206-1.788.275-2.131 1.168-5.156 13.199-10.243 26.397-15.398 39.595-.894 2.131 2.406 3.025 3.23.963z" fill="#000"/><path d="M660.467 100.224c.756-3.162 1.512-6.393 2.268-9.555l-1.65 1.238a200.31 200.31 0 0139.389 8.867c2.543.825 3.368.688 3.368 3.575 0 2.749-.206 5.499-.618 8.249-.275 2.131 3.024 3.093 3.299.893.413-2.818.687-5.636.687-8.455 0-1.581.275-3.781-.687-5.156-.962-1.374-3.093-1.718-4.537-2.2-2.681-.893-5.362-1.718-8.043-2.543a206.06 206.06 0 00-32.858-6.599c-.687-.069-1.512.619-1.65 1.238-.756 3.162-1.512 6.392-2.268 9.555-.55 2.131 2.75 3.024 3.3.893z" fill="#000"/><path d="M665.485 98.918c5.774-1.169 12.579 1.994 18.078 3.575 5.706 1.581 11.343 3.23 17.048 4.812 1.856.549 3.094-2.269 1.306-3.163-5.361-2.474-10.998-3.712-16.704-5.018-6.255-1.443-12.579-2.887-18.835-4.4-1.375-.343-2.749 1.17-1.925 2.544 2.75 4.4 9.899 4.675 14.436 5.706l21.447 5.155c2.131.55 3.094-2.818.894-3.299-5.843-1.375-11.686-2.819-17.529-4.193l-8.455-2.063c-2.337-.55-6.462-.825-7.837-3.093-.618.825-1.306 1.65-1.924 2.544 5.843 1.374 11.686 2.68 17.529 4.055 5.842 1.375 11.754 2.475 17.185 5.018.412-1.031.893-2.062 1.306-3.162-6.531-1.856-13.13-3.712-19.66-5.568-5.568-1.58-11.411-3.987-17.323-2.818-2.131.481-1.168 3.78.963 3.368zm21.378-24.472c12.098-14.642 24.197-29.352 36.295-43.994l-1.65.412c11.824 3.163 23.853 5.637 35.883 7.63 5.912 1.032 11.892 1.925 17.804 2.82 3.093.48 6.187.893 9.28 1.374 1.306.206 2.612.344 3.918.55.825.137 1.65.275 2.544.344 1.237.48 1.581.412 1.031-.07.069-.687.206-1.374.275-2.061-.069.068-.138.137-.138.206l1.65-.413c-.069 0-.206 0-.275-.068l1.238 1.65v-.207c-.069-2.2-3.506-2.2-3.438 0v.206c0 .688.55 1.513 1.238 1.65.825.138 1.512.138 2.131-.618.481-.55.756-1.444.275-2.063-1.306-1.787-3.575-1.58-5.568-1.856-3.094-.412-6.118-.893-9.212-1.306-6.393-.962-12.785-1.924-19.178-2.956-12.992-2.13-25.847-4.674-38.564-8.111-.55-.138-1.306 0-1.65.412-12.098 14.642-24.197 29.353-36.295 43.995-1.444 1.787.962 4.193 2.406 2.474z" fill="#000"/><path d="M685.144 77.471c11.274 1.375 22.479 2.75 33.752 4.124l16.91 2.063c4.4.55 10.518 2.474 14.848.893 3.712-1.374 7.081-5.018 10.105-7.561 4.125-3.368 8.181-6.943 12.099-10.518 7.561-6.942 14.779-14.366 21.584-22.065 1.444-1.65-.962-4.125-2.405-2.406a303.047 303.047 0 01-20.21 20.76 273.042 273.042 0 01-10.586 9.417 422.188 422.188 0 01-5.706 4.743c-2.131 1.719-4.468 4.33-7.355 4.674-2.337.275-5.225-.55-7.562-.824-2.474-.275-4.949-.62-7.424-.894-5.155-.619-10.38-1.237-15.535-1.925-10.793-1.306-21.585-2.612-32.446-3.987-2.269-.206-2.268 3.231-.069 3.506z" fill="#000"/><path d="M706.66 80.427c.619 1.925 1.031 4.743 2.681 6.118 2.2 1.856 6.53 1.306 9.211 1.306 7.837 0 15.604-1.1 23.166-3.162 2.2-.619 1.237-3.575-.894-3.3-5.087.688-10.173.688-15.26.55-5.087-.137-10.243-.069-14.986-2.13-.412 1.03-.893 2.061-1.306 3.161 5.568.825 11.136 1.65 16.773 2.544 2.131.343 3.093-2.956.894-3.3-5.568-.894-11.136-1.718-16.773-2.543-1.719-.275-3.3 2.268-1.306 3.162 4.949 2.13 10.105 2.406 15.466 2.543 5.843.138 11.618.138 17.461-.687-.275-1.1-.619-2.2-.894-3.3-5.774 1.581-11.686 2.612-17.666 2.887-2.613.138-5.294.138-7.906.07-1.237-.07-3.024.137-3.918-.895-.687-.756-.962-2.955-1.306-3.918-.825-2.13-4.124-1.237-3.437.894zm49.357 1.375c6.943-2.063 13.679-4.881 20.003-8.524 2.131-1.238 5.637-2.681 7.081-4.812 1.581-2.269-.688-6.668-1.375-9.005-.413-1.512-3.094-1.788-3.3 0-.206 1.375.344 2.612.207 3.918-.275 2.887-2.75 3.712-4.95 4.812-4.056 2.13-8.111 4.193-12.167 6.324.55.963 1.169 1.994 1.718 2.956 4.675-2.544 9.143-5.43 13.336-8.73 2.612-2.062 6.049-4.4 4.606-8.18-.413-1.1-1.925-1.788-2.887-.757a134.796 134.796 0 01-12.099 12.168c-1.649 1.443.757 3.918 2.406 2.406a134.796 134.796 0 0012.099-12.168c-.963-.275-1.925-.48-2.887-.756 1.031 2.75-6.256 6.668-7.974 7.905-2.681 1.857-5.5 3.506-8.387 5.087-1.925 1.032-.206 3.987 1.719 2.956 5.087-2.612 10.517-5.018 15.398-7.974 1.168-.756 2.406-1.58 3.093-2.887 1.1-2.2-.275-3.987 0-6.255h-3.299c.412 1.443 1.443 3.505 1.443 4.95-.069 1.718-1.169 2.267-2.475 3.092-2.199 1.375-4.399 2.681-6.667 3.85-4.95 2.543-10.174 4.606-15.536 6.187-2.131.756-1.237 4.055.894 3.437zm-10.656 2.199c4.606 7.63 6.049 16.223 1.375 24.197-3.368 5.637-8.249 10.105-12.03 15.398-3.299 4.606-5.774 10.311-4.537 16.086.619 3.024 2.406 5.843 5.293 7.08 3.781 1.65 8.043.344 12.03.481 1.1 0 1.994-1.1 1.65-2.2-1.512-4.537 6.393-6.393 9.418-7.08 4.468-1.031 9.005-1.169 13.473-.687l-1.719-1.719c.206 2.75.688 5.224 1.787 7.768a32.82 32.82 0 001.169-2.131c-3.231.687-6.53 1.375-9.761 2.062-1.512.344-3.025.619-4.537.962-.55.138-7.012 1.582-6.599.207.55-2.131-2.75-3.094-3.3-.894-1.031 4.193 2.956 5.568 6.324 5.018 6.325-1.031 12.58-2.681 18.835-3.987.825-.206 1.513-1.306 1.169-2.131-.962-2.268-1.512-4.468-1.65-6.874-.068-1.031-.756-1.65-1.718-1.718-6.668-.688-13.955-.069-20.21 2.612-3.712 1.581-7.562 5.087-6.049 9.555.55-.756 1.099-1.444 1.649-2.2-3.78-.137-9.486 1.787-12.373-1.444-2.475-2.818-2.062-7.355-.894-10.654 1.994-5.775 6.6-10.243 10.449-14.78 3.437-4.124 6.874-8.661 8.112-13.954 1.718-7.218-.619-14.505-4.331-20.623-1.238-1.993-4.193-.275-3.025 1.65zm-639.223 85.583c32.171-27.703 64.411-55.405 96.582-83.108-.688.069-1.375.206-2.063.275 10.587 6.255 21.173 12.58 31.759 18.835 1.925 1.1 3.643-1.856 1.718-2.956-10.586-6.255-21.172-12.58-31.758-18.835-.687-.412-1.512-.206-2.062.275-32.171 27.703-64.411 55.405-96.581 83.108-1.719 1.444.756 3.85 2.405 2.406zM25.23 29.627c4.537 4.33 9.143 8.661 13.68 12.992 2.268 2.2 4.537 4.33 6.874 6.53 2.2 2.063 5.087 4.194 6.668 6.737 1.1 1.787 1.237 4.125-.825 5.362-1.65.962-4.262-.481-5.706-1.237-2.406-1.238-4.743-2.681-7.011-4.056-5.156-3.23-9.486-7.08-12.717-12.305-.207.756-.413 1.581-.619 2.337 5.155-2.68 7.012-8.66 4.743-13.885-.893-2.062-3.85-.275-2.956 1.718 1.512 3.575-.206 7.493-3.506 9.212-.824.412-1.1 1.58-.618 2.337 4.056 6.599 9.83 11.205 16.429 15.054 4.262 2.544 12.167 7.7 16.154 1.787 4.124-6.049-3.85-11.96-7.63-15.466-6.874-6.53-13.68-12.992-20.554-19.523-1.58-1.512-3.987.894-2.406 2.406z" fill="#000"/><path d="M28.117 29.902C45.165 22.066 62.694 14.78 80.704 9.417c4.743-1.443 9.624-2.268 14.436-.825 4.261 1.306 8.248 4.056 11.617 6.943 6.255 5.362 11.273 12.58 10.861 21.104.275-.482.55-.963.825-1.513L85.241 52.862c-10.586 5.636-21.447 11.548-33.683 11.96l1.718 1.72c.619-5.706 7.012-8.387 11.549-10.518 6.118-2.888 12.236-5.706 18.354-8.593 12.236-5.706 24.471-11.48 36.776-17.185 1.994-.963.275-3.918-1.718-2.956-13.886 6.462-27.772 12.992-41.657 19.454-6.187 2.887-12.718 5.43-18.56 8.867-4.194 2.475-7.63 5.843-8.18 10.861-.07.894.893 1.719 1.718 1.719 12.854-.481 24.265-6.53 35.401-12.442l18.973-10.105c3.162-1.719 6.324-3.369 9.486-5.087 2.2-1.169 5.362-1.856 5.637-4.537 1.169-10.586-7.699-20.279-15.673-25.915-4.881-3.437-10.38-5.98-16.43-5.775-6.53.207-12.922 2.888-19.04 5.019-14.78 5.155-29.353 10.998-43.514 17.597-1.993.894-.274 3.85 1.719 2.956zm357.042-1.1c2.131.963 3.849.619 6.049-.069 2.612-.824 5.224-1.374 7.905-1.924l18.973-3.919c2.131-.412 1.237-3.78-.894-3.3-5.293 1.1-10.586 2.2-15.879 3.232a277.26 277.26 0 00-7.355 1.512c-1.788.413-5.293 2.268-7.012 1.444-2.062-.894-3.849 2.062-1.787 3.024zm4.536 9.074c9.074-2.68 18.286-4.743 27.634-6.118 2.2-.344 1.238-3.643-.893-3.3-9.349 1.444-18.56 3.438-27.634 6.119-2.131.618-1.238 3.986.893 3.3zm2.75 8.799c9.486-1.237 18.835-3.23 27.977-6.05 2.131-.618 1.238-3.986-.893-3.299-8.868 2.75-17.873 4.743-27.084 5.912-2.131.275-2.2 3.712 0 3.437zm2.681 9.211a340.852 340.852 0 0128.528-7.424c2.131-.481 1.237-3.78-.894-3.3-9.624 2.063-19.11 4.469-28.528 7.425-2.131.618-1.237 3.918.894 3.3zm.137 7.081c1.444 8.936 2.269 18.285 6.325 26.534.962 1.993 3.918.275 2.955-1.719-3.849-7.905-4.537-17.185-5.98-25.778-.344-2.13-3.643-1.168-3.3.963z" fill="#000"/><path d="M397.669 63.998a505.036 505.036 0 0151.418-11.549 32.389 32.389 0 00-2.131-1.168 137.389 137.389 0 015.775 26.74l1.237-1.65c-16.704 4.33-33.408 8.593-50.112 12.648-2.131.55-1.238 3.85.893 3.3 16.773-4.056 33.477-8.249 50.113-12.648.687-.207 1.374-.894 1.237-1.65-1.1-9.418-3.025-18.629-5.912-27.634-.275-.962-1.168-1.375-2.131-1.169a505.09 505.09 0 00-51.418 11.549c-2.062.481-1.169 3.78 1.031 3.23zm30.041-45.369c8.867-1.306 17.735-3.025 26.534-4.95 2.13-.48 1.237-3.78-.894-3.3a346.631 346.631 0 01-26.534 4.95c-2.2.344-1.237 3.643.894 3.3zm1.993 7.973c8.249-3.024 16.772-4.743 25.503-5.224 2.199-.137 2.199-3.574 0-3.437a91.105 91.105 0 00-26.397 5.362c-2.062.756-1.169 4.124.894 3.3zm1.168 8.731c9.692-1.238 18.354-6.324 28.046-7.287 2.2-.206 2.2-3.643 0-3.437-9.761 1.031-18.422 6.05-28.046 7.287-2.2.275-2.2 3.712 0 3.437zm4.193 7.974c8.868-1.238 17.529-3.163 26.053-5.843 2.131-.688 1.237-3.987-.894-3.3-8.523 2.681-17.185 4.675-26.052 5.843-2.2.344-1.306 3.643.893 3.3zm21.517 8.111c3.299 1.031 6.461.206 9.692-.687 4.4-1.169 8.799-2.338 13.267-3.506 2.131-.55 1.237-3.85-.894-3.3-3.505.894-7.08 1.856-10.586 2.75-3.368.894-7.08 2.406-10.517 1.375-2.2-.55-3.093 2.75-.962 3.368zm4.33 9.762c6.53-3.3 14.229-2.475 20.966-5.225 1.994-.825 1.169-4.124-.894-3.3-7.011 2.888-14.916 2.063-21.791 5.569-1.993.962-.275 3.918 1.719 2.955zm-.275 8.317a143.945 143.945 0 0125.297-4.743c2.2-.206 2.2-3.643 0-3.437-8.868.825-17.598 2.474-26.19 4.88-2.131.62-1.238 3.919.893 3.3zm6.462 6.737c7.699-1.306 15.191-3.231 22.478-5.912 2.062-.756 1.169-4.056-.894-3.3-7.286 2.681-14.779 4.675-22.478 5.912-2.2.344-1.237 3.643.894 3.3zm-8.799-67.779a1110.336 1110.336 0 017.218 22.89c.55 1.857.825 4.263 2.887 4.95 2.475.756 6.324-.687 8.799-1.1.687-.137 1.375-.962 1.237-1.65-.962-7.836-4.331-15.535-6.805-23.028-.688-1.993-1.169-6.53-3.094-7.768-2.062-1.306-6.255.894-8.248 1.375-2.131.55-1.238 3.85.893 3.3 1.581-.413 3.3-1.169 4.95-1.306.412-.138.824-.207 1.237-.344-.894.344-.963.962-.275 1.787.344 2.681 1.856 5.637 2.681 8.18 1.925 5.706 4.468 11.618 5.224 17.667l1.237-1.65c-1.306.206-2.68.412-3.987.688-.55.068-1.168.206-1.718.274-.756.482-1.169.344-1.169-.412-.756-.825-1.031-3.368-1.306-4.468-.412-1.306-.756-2.544-1.168-3.85-1.719-5.499-3.437-10.998-5.225-16.498-.687-1.993-4.055-1.1-3.368.963zm-96.993 4.125c7.63 31.139 15.191 62.279 22.822 93.35.687 2.681 4.812 1.581 4.193-1.169-7.63-31.14-15.192-62.28-22.822-93.35-.688-2.681-4.812-1.581-4.193 1.168z" fill="#000"/><path d="M363.849 12.992C381.447 6.255 400.076 2.956 418.636-.07c19.728-3.162 39.457-6.324 59.186-9.555 2.749-.412 1.581-4.606-1.169-4.193-19.729 3.162-39.457 6.324-59.186 9.555-18.56 3.024-37.12 6.324-54.787 13.06-2.543 1.032-1.374 5.225 1.169 4.194zm24.197 94.931c18.423-.206 36.776-6.462 54.512-10.792 18.972-4.675 38.013-9.349 56.986-14.023 2.681-.688 1.581-4.812-1.169-4.194-18.422 4.537-36.914 9.074-55.336 13.611-17.873 4.4-36.502 10.861-54.993 11.067-2.818 0-2.818 4.331 0 4.331z" fill="#000"/><path d="M494.044 56.574a325.663 325.663 0 016.118 24.471c.55 2.75 4.743 1.581 4.194-1.168-1.719-8.25-3.781-16.36-6.118-24.472-.757-2.612-4.95-1.512-4.194 1.169z" fill="#000"/><path d="M476.722-11.549a403.294 403.294 0 0016.291 64.686c.894 2.612 5.087 1.512 4.194-1.169a403.191 403.191 0 01-16.292-64.685c-.481-2.75-4.606-1.581-4.193 1.168zM373.335 16.91c7.286 26.671 14.573 53.412 21.86 80.083.756 2.681 4.88 1.513 4.193-1.168-7.287-26.672-14.573-53.412-21.86-80.084-.756-2.68-4.949-1.512-4.193 1.169z" fill="#000"/><path d="M377.391 18.216c31.14-8.799 62.967-15.054 95.069-18.629-.687-.55-1.375-1.03-2.062-1.58 6.118 24.952 13.129 49.7 21.172 74.102.894 2.612 5.018 1.512 4.193-1.168a1023.179 1023.179 0 01-21.172-74.103c-.206-.825-1.169-1.719-2.062-1.581-32.584 3.643-64.754 9.898-96.238 18.835-2.681.687-1.581 4.88 1.1 4.124z" fill="#000"/><path d="M399.251 99.262a4783.695 4783.695 0 0193.9-22.547c2.681-.619 1.581-4.812-1.169-4.194a5033.25 5033.25 0 00-93.9 22.548c-2.681.687-1.512 4.88 1.169 4.193zm28.183.55c-.412 2.337-2.337 7.011.207 8.799 1.512 1.031 4.262.481 5.843.343 2.543-.206 5.087-.55 7.561-.962a59.209 59.209 0 007.63-1.994c1.994-.687 5.294-1.374 6.943-2.818 2.75-2.475 1.306-8.318.894-11.549-.138-.962-1.237-1.58-2.062-1.58-.413 0-.894-.07-1.306-.07-2.75-.137-2.75 4.194 0 4.331.412 0 .893.07 1.306.07-.688-.55-1.375-1.032-2.062-1.582.206 1.444.274 2.887.412 4.4.137 2.13.55 2.13-1.031 3.162-1.994 1.237-4.95 1.856-7.149 2.474-4.4 1.169-10.793 3.094-15.261 1.925l1.513 1.512c-.482-1.168.549-3.987.824-5.155.413-2.887-3.78-4.056-4.262-1.306z" fill="#000"/><path d="M425.647 100.637c-7.011 4.399-13.679 9.211-20.003 14.504-1.444 1.169-.275 3.781 1.512 3.712 12.923-.825 25.778-2.75 38.289-5.912a195.718 195.718 0 0018.697-5.705c4.606-1.65 8.73-3.437 11.617-7.493 1.1-1.512-.412-3.093-1.856-3.23-6.324-.757-12.648-1.238-19.041-1.376-2.818-.068-2.75 4.262 0 4.331 6.393.138 12.717.619 19.041 1.375-.618-1.1-1.237-2.2-1.856-3.231-3.162 4.399-9.555 5.774-14.435 7.355-5.431 1.788-10.93 3.3-16.429 4.606-11.205 2.612-22.547 4.262-34.027 5.018.481 1.237 1.031 2.475 1.512 3.712a179.945 179.945 0 0119.11-13.817c2.406-1.581.275-5.293-2.131-3.849zM784.681-8.73a4122.345 4122.345 0 0129.353 63.791c.894 1.994 3.849.275 2.956-1.718-9.624-21.31-19.385-42.62-29.353-63.792-.893-2.062-3.849-.275-2.956 1.718zm36.089-16.842c3.162 5.018 5.431 10.242 7.631 15.742 1.993 4.811 4.33 9.486 6.667 14.16 5.5 10.999 10.93 21.929 16.43 32.927.962 1.994 3.987.275 2.955-1.718-5.499-10.999-10.929-21.929-16.429-32.927-2.543-5.156-5.087-10.243-7.217-15.604-1.994-4.95-4.194-9.762-7.081-14.299-1.168-1.856-4.124-.137-2.956 1.719z" fill="#000"/><path d="M817.333 55.749c5.912-3.437 12.236-4.95 18.491-7.493 5.706-2.406 10.93-6.393 16.223-9.693 1.856-1.168.138-4.124-1.718-2.955-5.637 3.505-11.274 7.905-17.529 10.105-5.981 2.062-11.617 3.849-17.117 7.08-1.993 1.1-.275 4.124 1.65 2.956zm-2.956-5.569c12.236-5.568 24.541-11.204 36.777-16.772 1.993-.894.275-3.85-1.719-2.956-12.235 5.568-24.54 11.205-36.776 16.773-2.062.893-.275 3.85 1.718 2.956z" fill="#000"/></g></g><defs><clipPath id="clip0_414_3995"><path d="M0 8a8 8 0 018-8h864a8 8 0 018 8v96H0V8z" fill="#fff"/></clipPath><clipPath id="clip1_414_3995"><path fill="#fff" transform="translate(23 -299.5)" d="M0 0h834.667v469.5H0z"/></clipPath></defs></svg>