<svg version="1.1" id="Layer_1" xmlns="http://www.w3.org/2000/svg" xmlns:xlink="http://www.w3.org/1999/xlink" x="0px" y="0px"
	 width="100%" viewBox="0 0 860 900" enable-background="new 0 0 860 900" xml:space="preserve">
<path fill="#F7F7F7" opacity="1.000000" stroke="none" 
	d="
M498.000000,901.000000 
	C332.000000,901.000000 166.500000,901.000000 1.000000,901.000000 
	C1.000000,601.000000 1.000000,301.000000 1.000000,1.000000 
	C287.666656,1.000000 574.333313,1.000000 861.000000,1.000000 
	C861.000000,301.000000 861.000000,601.000000 861.000000,901.000000 
	C740.166687,901.000000 619.333313,901.000000 498.000000,901.000000 
M731.852722,703.866394 
	C732.847839,703.125977 734.076843,702.564880 734.802551,701.618042 
	C744.626953,688.801147 755.188171,676.459778 764.022400,662.987732 
	C822.150696,574.343445 842.667542,477.419250 824.971680,372.991974 
	C809.716797,282.969299 768.019775,206.401108 699.798950,145.916748 
	C595.234253,53.210045 473.124329,21.928139 337.322845,53.764706 
	C223.346680,80.484657 137.800583,147.917191 81.035507,250.267517 
	C36.150574,331.197327 22.719263,418.140320 37.935524,509.334381 
	C49.951351,581.347595 80.375847,644.944641 127.452858,700.638184 
	C128.615997,702.014282 130.437347,702.833984 132.243515,704.538940 
	C133.196243,705.889709 133.982666,707.404663 135.128418,708.564819 
	C143.263779,716.802307 150.970734,725.558411 159.767776,733.026062 
	C175.677826,746.531860 191.664642,760.087585 208.689697,772.106384 
	C233.298141,789.478516 259.939514,803.472229 288.393372,813.634644 
	C302.906525,818.818054 317.491241,824.020630 332.399902,827.814880 
	C346.945648,831.516663 361.864990,834.058167 376.766144,835.976624 
	C394.635345,838.277222 412.645569,840.459167 430.619507,840.680664 
	C446.931549,840.881714 463.334503,838.867493 479.590881,836.934326 
	C495.006287,835.101196 510.542511,833.133240 525.552856,829.349426 
	C542.524536,825.071106 559.093628,819.052002 575.616211,813.167603 
	C605.159607,802.645996 632.420776,787.579773 658.184998,769.836914 
	C680.252502,754.639832 700.606750,737.326294 719.273621,718.097107 
	C723.611084,713.628967 727.238892,708.471985 731.852722,703.866394 
z"/>
<path fill="#2FB166" opacity="1.000000" stroke="none" 
	d="
M131.951691,703.913208 
	C130.437347,702.833984 128.615997,702.014282 127.452858,700.638184 
	C80.375847,644.944641 49.951351,581.347595 37.935524,509.334381 
	C22.719263,418.140320 36.150574,331.197327 81.035507,250.267517 
	C137.800583,147.917191 223.346680,80.484657 337.322845,53.764706 
	C473.124329,21.928139 595.234253,53.210045 699.798950,145.916748 
	C768.019775,206.401108 809.716797,282.969299 824.971680,372.991974 
	C842.667542,477.419250 822.150696,574.343445 764.022400,662.987732 
	C755.188171,676.459778 744.626953,688.801147 734.802551,701.618042 
	C734.076843,702.564880 732.847839,703.125977 731.513062,703.373535 
	C728.741577,695.275879 726.606812,687.560608 723.826965,680.085144 
	C711.122192,645.919800 692.252747,615.899292 663.717407,592.630615 
	C630.144897,565.254578 590.847778,553.794067 548.303040,550.648376 
	C534.493103,549.627319 523.609497,552.626953 512.040649,561.010864 
	C461.733154,597.468262 392.489014,594.797729 343.767029,555.844482 
	C339.036865,552.062683 334.108215,549.585327 327.804962,550.183838 
	C316.209839,551.284912 304.499969,551.499939 292.994293,553.165039 
	C242.158401,560.522156 199.838531,582.990173 168.868027,624.803101 
	C151.215729,648.635254 139.139404,675.154846 131.951691,703.913208 
M317.508850,462.996155 
	C347.808014,490.735809 383.493134,506.048950 424.504761,507.553680 
	C475.235901,509.415009 518.363831,491.524323 553.673706,455.020844 
	C601.841248,405.225006 613.423096,325.680756 581.522400,264.299164 
	C545.536072,195.056198 471.396271,159.878326 395.352417,175.965225 
	C323.976837,191.064514 268.332855,255.161102 264.134216,327.557983 
	C261.060394,380.558685 278.702972,425.626892 317.508850,462.996155 
z"/>
<path fill="#FFFFFF" opacity="1.000000" stroke="none" 
	d="
M132.097595,704.226074 
	C139.139404,675.154846 151.215729,648.635254 168.868027,624.803101 
	C199.838531,582.990173 242.158401,560.522156 292.994293,553.165039 
	C304.499969,551.499939 316.209839,551.284912 327.804962,550.183838 
	C334.108215,549.585327 339.036865,552.062683 343.767029,555.844482 
	C392.489014,594.797729 461.733154,597.468262 512.040649,561.010864 
	C523.609497,552.626953 534.493103,549.627319 548.303040,550.648376 
	C590.847778,553.794067 630.144897,565.254578 663.717407,592.630615 
	C692.252747,615.899292 711.122192,645.919800 723.826965,680.085144 
	C726.606812,687.560608 728.741577,695.275879 731.183350,703.256348 
	C727.238892,708.471985 723.611084,713.628967 719.273621,718.097107 
	C700.606750,737.326294 680.252502,754.639832 658.184998,769.836914 
	C632.420776,787.579773 605.159607,802.645996 575.616211,813.167603 
	C559.093628,819.052002 542.524536,825.071106 525.552856,829.349426 
	C510.542511,833.133240 495.006287,835.101196 479.590881,836.934326 
	C463.334503,838.867493 446.931549,840.881714 430.619507,840.680664 
	C412.645569,840.459167 394.635345,838.277222 376.766144,835.976624 
	C361.864990,834.058167 346.945648,831.516663 332.399902,827.814880 
	C317.491241,824.020630 302.906525,818.818054 288.393372,813.634644 
	C259.939514,803.472229 233.298141,789.478516 208.689697,772.106384 
	C191.664642,760.087585 175.677826,746.531860 159.767776,733.026062 
	C150.970734,725.558411 143.263779,716.802307 135.128418,708.564819 
	C133.982666,707.404663 133.196243,705.889709 132.097595,704.226074 
z"/>
<path fill="#FFFFFF" opacity="1.000000" stroke="none" 
	d="
M317.247101,462.759491 
	C278.702972,425.626892 261.060394,380.558685 264.134216,327.557983 
	C268.332855,255.161102 323.976837,191.064514 395.352417,175.965225 
	C471.396271,159.878326 545.536072,195.056198 581.522400,264.299164 
	C613.423096,325.680756 601.841248,405.225006 553.673706,455.020844 
	C518.363831,491.524323 475.235901,509.415009 424.504761,507.553680 
	C383.493134,506.048950 347.808014,490.735809 317.247101,462.759491 
z"/>
</svg>