<svg version="1.1" id="Layer_1" xmlns="http://www.w3.org/2000/svg" xmlns:xlink="http://www.w3.org/1999/xlink" x="0px" y="0px"
	 width="100%" viewBox="0 0 233 92" enable-background="new 0 0 233 92" xml:space="preserve">
<path fill="#F3F4F7" opacity="1.000000" stroke="none" 
	d="
M188.000000,93.000000 
	C125.333344,93.000000 63.166683,93.000000 1.000017,93.000000 
	C1.000011,62.333344 1.000011,31.666689 1.000006,1.000025 
	C78.666649,1.000017 156.333298,1.000017 233.999954,1.000008 
	C233.999969,31.666643 233.999969,62.333286 233.999985,92.999969 
	C218.833328,93.000000 203.666672,93.000000 188.000000,93.000000 
M50.927322,83.697586 
	C70.760696,89.459549 89.845726,81.855080 99.579018,64.312218 
	C108.333931,48.532749 104.724380,27.942373 91.023811,15.509795 
	C76.783745,2.587635 55.890594,1.210501 39.951698,12.638093 
	C27.120239,21.837767 21.275803,34.822693 23.317156,50.382656 
	C25.436327,66.535805 34.855728,77.597412 50.927322,83.697586 
M121.037125,54.376228 
	C125.694008,58.891659 131.173599,59.882065 137.206467,57.934574 
	C142.611710,56.189693 144.355774,52.869617 142.940536,46.548248 
	C141.748978,41.226009 137.266556,44.050114 134.218109,43.578281 
	C133.287811,43.434292 132.132812,44.741982 131.080719,45.384838 
	C132.126526,46.203880 133.145340,47.060688 134.225159,47.832104 
	C135.487869,48.734173 136.803741,49.561798 138.096558,50.421719 
	C136.781006,51.648594 135.646667,53.566620 134.114777,53.968231 
	C130.082352,55.025394 126.429672,53.884937 124.285805,49.990746 
	C122.130280,46.075382 122.554413,42.120880 125.487976,38.840111 
	C128.379639,35.606190 132.054565,35.590740 136.061676,36.980278 
	C137.682236,37.542240 139.703430,36.948875 141.542313,36.881264 
	C140.239899,35.423698 139.213898,33.335297 137.585464,32.621784 
	C131.692993,30.039930 124.529556,31.928436 120.771133,36.587494 
	C116.885193,41.404640 116.820496,47.667965 121.037125,54.376228 
M171.547028,40.592697 
	C171.545090,39.262978 171.875656,37.816589 171.460068,36.631992 
	C170.894669,35.020458 169.759277,33.608898 168.868301,32.111591 
	C168.115555,33.545467 166.848892,34.932159 166.712036,36.422581 
	C166.378983,40.050091 166.743637,43.737007 166.507004,47.379189 
	C166.200272,52.100399 163.765091,54.414967 159.687866,54.178932 
	C155.354996,53.928089 153.585007,51.237938 153.477142,47.230968 
	C153.374283,43.410511 153.635620,39.567898 153.304153,35.772820 
	C153.191910,34.487667 151.758438,33.317921 150.928757,32.095432 
	C150.066925,33.291660 148.571564,34.432861 148.461990,35.694427 
	C148.132431,39.488754 148.250198,43.332703 148.362320,47.152340 
	C148.582367,54.648720 152.643433,58.740559 159.758026,58.794060 
	C167.001938,58.848537 171.027390,55.005146 171.489807,47.502956 
	C171.612305,45.515293 171.533142,43.515202 171.547028,40.592697 
M181.255142,47.405006 
	C182.617844,50.433174 183.819382,53.548008 185.388306,56.465267 
	C186.974808,59.415234 189.606308,59.796989 191.095291,56.784813 
	C194.548401,49.799297 197.499786,42.561157 200.478134,35.352539 
	C200.782852,34.614994 199.992279,32.597092 199.536621,32.539272 
	C198.467987,32.403671 196.678802,32.762917 196.271912,33.513279 
	C194.695633,36.420021 193.565186,39.566547 192.231384,42.607407 
	C191.153534,45.064713 190.022034,47.498482 188.326828,51.239113 
	C185.560608,44.813988 183.574020,39.766563 181.172562,34.924900 
	C180.568481,33.707005 178.635132,33.148434 177.312653,32.286861 
	C177.110550,33.728733 176.394272,35.340874 176.804596,36.579937 
	C177.948059,40.032913 179.558777,43.331154 181.255142,47.405006 
M209.910843,57.856281 
	C210.226074,50.000271 210.615616,42.145325 210.728561,34.286407 
	C210.738617,33.588043 208.948715,32.863808 207.994797,32.151588 
	C207.311859,33.144150 206.064789,34.121414 206.037384,35.131760 
	C205.857681,41.757538 205.789703,48.397278 206.087051,55.014404 
	C206.137192,56.130428 208.134567,57.158951 209.910843,57.856281 
z"/>
<path fill="#14BC50" opacity="1.000000" stroke="none" 
	d="
M50.553322,83.571915 
	C34.855728,77.597412 25.436327,66.535805 23.317156,50.382656 
	C21.275803,34.822693 27.120239,21.837767 39.951698,12.638093 
	C55.890594,1.210501 76.783745,2.587635 91.023811,15.509795 
	C104.724380,27.942373 108.333931,48.532749 99.579018,64.312218 
	C89.845726,81.855080 70.760696,89.459549 50.553322,83.571915 
M50.051239,55.075672 
	C50.051704,55.722412 50.052174,56.369148 50.172577,57.808262 
	C50.114075,58.872478 50.055576,59.936691 49.565258,61.275440 
	C49.870941,61.866913 50.176620,62.458385 50.911980,63.633095 
	C53.735210,69.797424 58.550854,72.722450 65.287453,72.112366 
	C71.686508,71.532845 77.470360,65.563164 76.916344,59.939774 
	C76.779945,58.555229 75.285645,56.801083 73.976601,56.238708 
	C73.277084,55.938194 71.519760,57.698730 70.480713,58.764030 
	C69.983116,59.274197 70.145760,60.371220 69.837166,61.132660 
	C68.450676,64.553810 65.534691,66.488144 62.348713,65.121857 
	C60.096886,64.156166 57.326660,61.010181 57.408901,58.941753 
	C57.491550,56.862995 60.507065,54.327980 62.823784,53.093197 
	C64.658607,52.115250 67.383446,52.858841 69.707779,52.736988 
	C74.744942,52.472919 76.950554,50.306492 77.078178,45.267342 
	C77.196136,40.609432 77.213051,35.942146 77.061539,31.285919 
	C76.862267,25.162106 73.094070,20.514826 67.285957,18.890591 
	C61.905960,17.386076 55.976673,19.454296 52.662495,23.991459 
	C47.098351,31.608854 50.661964,40.387676 61.022495,45.395039 
	C61.019615,45.623688 61.016739,45.852333 60.409332,46.429882 
	C57.129032,49.272118 53.848732,52.114353 50.051239,55.075672 
z"/>
<path fill="#484848" opacity="1.000000" stroke="none" 
	d="
M120.815407,54.071190 
	C116.820496,47.667965 116.885193,41.404640 120.771133,36.587494 
	C124.529556,31.928436 131.692993,30.039930 137.585464,32.621784 
	C139.213898,33.335297 140.239899,35.423698 141.542313,36.881264 
	C139.703430,36.948875 137.682236,37.542240 136.061676,36.980278 
	C132.054565,35.590740 128.379639,35.606190 125.487976,38.840111 
	C122.554413,42.120880 122.130280,46.075382 124.285805,49.990746 
	C126.429672,53.884937 130.082352,55.025394 134.114777,53.968231 
	C135.646667,53.566620 136.781006,51.648594 138.096558,50.421719 
	C136.803741,49.561798 135.487869,48.734173 134.225159,47.832104 
	C133.145340,47.060688 132.126526,46.203880 131.080719,45.384842 
	C132.132812,44.741982 133.287811,43.434292 134.218109,43.578281 
	C137.266556,44.050114 141.748978,41.226009 142.940536,46.548248 
	C144.355774,52.869617 142.611710,56.189693 137.206467,57.934574 
	C131.173599,59.882065 125.694008,58.891659 120.815407,54.071190 
z"/>
<path fill="#474748" opacity="1.000000" stroke="none" 
	d="
M171.546799,41.056755 
	C171.533142,43.515202 171.612305,45.515293 171.489807,47.502956 
	C171.027390,55.005146 167.001938,58.848537 159.758026,58.794060 
	C152.643433,58.740559 148.582367,54.648720 148.362320,47.152340 
	C148.250198,43.332703 148.132431,39.488754 148.461990,35.694427 
	C148.571564,34.432861 150.066925,33.291660 150.928757,32.095436 
	C151.758438,33.317921 153.191910,34.487667 153.304153,35.772820 
	C153.635620,39.567898 153.374283,43.410511 153.477142,47.230968 
	C153.585007,51.237938 155.354996,53.928089 159.687866,54.178932 
	C163.765091,54.414967 166.200272,52.100399 166.507004,47.379189 
	C166.743637,43.737007 166.378983,40.050091 166.712036,36.422581 
	C166.848892,34.932159 168.115555,33.545467 168.868317,32.111588 
	C169.759277,33.608898 170.894669,35.020458 171.460068,36.631992 
	C171.875656,37.816589 171.545090,39.262978 171.546799,41.056755 
z"/>
<path fill="#484848" opacity="1.000000" stroke="none" 
	d="
M181.120071,47.047749 
	C179.558777,43.331154 177.948059,40.032913 176.804596,36.579937 
	C176.394272,35.340874 177.110550,33.728733 177.312653,32.286861 
	C178.635132,33.148434 180.568481,33.707005 181.172562,34.924900 
	C183.574020,39.766563 185.560608,44.813988 188.326828,51.239113 
	C190.022034,47.498482 191.153534,45.064713 192.231384,42.607407 
	C193.565186,39.566547 194.695633,36.420021 196.271912,33.513279 
	C196.678802,32.762917 198.467987,32.403671 199.536621,32.539272 
	C199.992279,32.597092 200.782852,34.614994 200.478134,35.352539 
	C197.499786,42.561157 194.548401,49.799297 191.095291,56.784813 
	C189.606308,59.796989 186.974808,59.415234 185.388306,56.465267 
	C183.819382,53.548008 182.617844,50.433174 181.120071,47.047749 
z"/>
<path fill="#454545" opacity="1.000000" stroke="none" 
	d="
M209.571533,58.042091 
	C208.134567,57.158951 206.137192,56.130428 206.087051,55.014404 
	C205.789703,48.397278 205.857681,41.757538 206.037384,35.131760 
	C206.064789,34.121414 207.311859,33.144150 207.994797,32.151588 
	C208.948715,32.863808 210.738617,33.588043 210.728561,34.286407 
	C210.615616,42.145325 210.226074,50.000271 209.571533,58.042091 
z"/>
<path fill="#E9F9EE" opacity="1.000000" stroke="none" 
	d="
M49.997074,61.000908 
	C50.055576,59.936691 50.114075,58.872478 50.319382,57.214325 
	C50.500271,56.065784 50.534351,55.511185 50.568436,54.956589 
	C53.848732,52.114353 57.129032,49.272118 61.166306,46.312572 
	C70.883316,45.885509 70.282211,48.010944 70.305443,37.540337 
	C70.308769,36.043007 70.330750,34.544979 70.295242,33.048435 
	C70.177330,28.079239 67.948845,25.180126 63.989746,25.078577 
	C60.366753,24.985645 57.755909,26.785732 57.120335,30.329153 
	C56.317108,34.807209 59.035393,36.879482 63.063236,38.081642 
	C64.510651,38.513641 65.587181,40.188332 66.832970,41.295887 
	C65.408020,42.394947 64.012146,43.535770 62.536900,44.562561 
	C62.185036,44.807465 61.568180,44.671635 61.073208,44.710922 
	C50.661964,40.387676 47.098351,31.608854 52.662495,23.991459 
	C55.976673,19.454296 61.905960,17.386076 67.285957,18.890591 
	C73.094070,20.514826 76.862267,25.162106 77.061539,31.285919 
	C77.213051,35.942146 77.196136,40.609432 77.078178,45.267342 
	C76.950554,50.306492 74.744942,52.472919 69.707779,52.736988 
	C67.383446,52.858841 64.658607,52.115250 62.823784,53.093197 
	C60.507065,54.327980 57.491550,56.862995 57.408901,58.941753 
	C57.326660,61.010181 60.096886,64.156166 62.348713,65.121857 
	C65.534691,66.488144 68.450676,64.553810 69.837166,61.132660 
	C70.145760,60.371220 69.983116,59.274197 70.480713,58.764030 
	C71.519760,57.698730 73.277084,55.938194 73.976601,56.238708 
	C75.285645,56.801083 76.779945,58.555229 76.916344,59.939774 
	C77.470360,65.563164 71.686508,71.532845 65.287453,72.112366 
	C58.550854,72.722450 53.735210,69.797424 50.779541,63.068451 
	C50.430424,62.002842 50.213749,61.501873 49.997074,61.000908 
z"/>
<path fill="#2AC260" opacity="1.000000" stroke="none" 
	d="
M61.047852,45.052979 
	C61.568180,44.671635 62.185036,44.807465 62.536900,44.562561 
	C64.012146,43.535770 65.408020,42.394947 66.832970,41.295887 
	C65.587181,40.188332 64.510651,38.513641 63.063236,38.081642 
	C59.035393,36.879482 56.317108,34.807209 57.120335,30.329153 
	C57.755909,26.785732 60.366753,24.985645 63.989746,25.078577 
	C67.948845,25.180126 70.177330,28.079239 70.295242,33.048435 
	C70.330750,34.544979 70.308769,36.043007 70.305443,37.540337 
	C70.282211,48.010944 70.883316,45.885509 61.468575,46.138123 
	C61.016739,45.852333 61.019615,45.623688 61.047852,45.052979 
z"/>
<path fill="#2AC260" opacity="1.000000" stroke="none" 
	d="
M50.309837,55.016129 
	C50.534351,55.511185 50.500271,56.065784 50.259415,56.818138 
	C50.052174,56.369148 50.051704,55.722412 50.309837,55.016129 
z"/>
<path fill="#2AC260" opacity="1.000000" stroke="none" 
	d="
M49.781166,61.138176 
	C50.213749,61.501873 50.430424,62.002842 50.564701,62.776833 
	C50.176620,62.458385 49.870941,61.866913 49.781166,61.138176 
z"/>
</svg>