<svg width="879" height="861" viewBox="0 0 879 861" fill="none" xmlns="http://www.w3.org/2000/svg">
<path d="M787 651H716.7C711.9 651 707.4 653.1 704.4 656.8C697.4 665.3 689.9 673.5 682 681.3C649.689 713.643 611.417 739.418 569.3 757.2C525.666 775.63 478.767 785.085 431.4 785C383.5 785 337.1 775.6 293.5 757.2C251.383 739.418 213.111 713.643 180.8 681.3C148.432 649.066 122.622 610.861 104.8 568.8C86.3 525.2 77 478.9 77 431C77 383.1 86.4 336.8 104.8 293.2C122.6 251.1 148.2 213.2 180.8 180.7C213.4 148.2 251.3 122.6 293.5 104.8C337.1 86.4 383.5 77 431.4 77C479.3 77 525.7 86.3 569.3 104.8C611.5 122.6 649.4 148.2 682 180.7C689.9 188.6 697.3 196.8 704.4 205.2C707.4 208.9 712 211 716.7 211H787C793.3 211 797.2 204 793.7 198.7C717 79.5 582.8 0.599988 430.3 0.999988C190.7 1.59999 -1.39997 196.1 1.00003 435.4C3.40003 670.9 195.2 861 431.4 861C583.5 861 717.1 782.2 793.7 663.3C797.1 658 793.3 651 787 651ZM875.9 424.7L734 312.7C728.7 308.5 721 312.3 721 319V395H407C402.6 395 399 398.6 399 403V459C399 463.4 402.6 467 407 467H721V543C721 549.7 728.8 553.5 734 549.3L875.9 437.3C876.856 436.552 877.63 435.595 878.161 434.504C878.693 433.412 878.969 432.214 878.969 431C878.969 429.786 878.693 428.588 878.161 427.496C877.63 426.404 876.856 425.448 875.9 424.7Z" fill="#0DBA4B"/>
</svg>
